<svg xmlns="http://www.w3.org/2000/svg" version="1.2" viewBox="0 0 450.59 377" height="377pt" width="600.787"><path d="M129.121 297.836s15.758.035 15.781.016c12.325 0 13.703-6.485 19.024-13.157 5.312-6.672 8.12-9.832 11.383-7.355 11.46 9.183 21 16.164 29.347 9.879 15.121-11.582 21.797-39.969 35.95-56.29 3.304-4.222 10.68-10.488 14.187-14.534 1.644-1.735.7-3.38-.996-2.36-7.137 4.793-23.223 15.278-35.133 37.426-11.004 20.07-18.953 26.922-27.832 21.601-4.55-2.542-7.348-6.203-13.535-10.535-6.192-4.332-12.227 4.551-15.406 7.735-3.184 3.183-9.66 12.406-15.23 13.465-5.571 1.062-11.806-.528-15.65 7.164-2.253 4.375-1.89 6.945-1.89 6.945m145.75-154.453c6.488 8.734 6.008 16.187.762 23.258-3.735 5.648-6.012 10.367-6.735 18.015-.953 12.63 8.614 24.262 20.075 25.406 5.746.239 10.718-1.667 14.804-5.707 13.555-13.402 13.493-46.042 13.399-50.968l5.91-.075c.61 1.567 2.629 6.325 6.746 12.422 15.164 22.453 27.762 27.957 37.852 25.914 6.91-1.582-13.114-16.28-14.739-17.843-1.629-1.567-.574-2.868 2.332-1.23.93.523 39.477 20.562 27.961 28.984-9.66 6.59-26.05 4.82-38.437-5.73-12.516-11.032-23.106-32.4-23.207-32.614l-.688-1.39s-.094-.192-.101.019c.02.707.07 2.734.082 3.215.601 33.261-9.86 51.101-29.793 53.023-15.13 1.18-32.567-9.934-34.805-28.46-2.52-26.75 14.941-43.138 18.582-46.24M132.457 82.344s2.48-4.754 8.926-1.781c5.07 2.453 15.453 13.042 26.492 35.539 19.52 40.617 14.848 20.214 5.832-1.141-3.742-8.867-8.082-17.613-12.875-24.621-4.852-7.09-12.73-15.63-19.5-19.461-10.254-5.715-12.508-.117-11.793 5.203.399 3.32 2.918 6.262 2.918 6.262M68.125 301.89c3.645-4.433 6.969-6.074 15.352-6.074 8.48 0 11.218-2.359 18.308-15.765 7.836-14.82 15.344-19.719 21.985-24.051 6.066-3.402 14.62-7.73 18.804-18.035.899-1.985 2.067-5.23 3.414-8.988l.098-.27c1.496-4.172 3.25-9.05 5.09-13.465l.02.09s5.683-14.434 3.07 5.113c-1.176 8.797-.645 14.352.293 17.844a16.97 16.97 0 0 0 5.046 7.27c3.684 3.136-.984 1.566-7.261 4.058-1.457.574-2.922 1.606-4.422 2.863-3.664 3.801-8.414 7.836-14.067 10.735-14.73 7.543-22.554 22.45-27.523 28.82l-1.32 1.906c-6.934 10.024-10.75 15.54-18.348 15.54 0 0-21.043.019-21.059 0 .047-1.227.364-4.958 2.52-7.59" style="stroke:none;fill-rule:nonzero;fill:#2c7493;fill-opacity:1"/><path d="M211.336 138.336c9.055-14.629 27.941-30.856 52.453-30.856 1.55 0 3.133.067 4.73.204.024 0 .043.007.06.007 3.554-5.632 8.816-12.988 13.206-15.097 5.106-2.45 11.914-.524 14.16 6.492 1.532 4.781.332 13.805-1.02 12.836-1.722-1.234-1.53-17.11-10.054-11.75-3.293 2.078-5.785 7.656-6.59 9.64 9.098 2.82 15.977 7.696 20.528 14.555 2.918 4.621 7.675 15.078 4.546 27.746-1.382 5.602-2.199-1.34-3.703-8.629-1.398-6.136-3.199-12.964-10.297-18.828-7.097-5.863-17.59-9.535-30.023-8.164-12.043 1.356-22.84 7.297-30.824 16.738-1.977 2.333-6.727 9.38-7.613 10.747-5.317 8.207-8.36 12.886-18.856 12.78 1.676-4.452 4.516-10.698 9.297-18.421M113.242 74.05c5.672 3.477 12.64 9.138 20.098 17.868 8.144 9.547 17.469 22.914 27.71 39.738 5.966 9.793 7.7 15.473 7.38 16.145h-.008c-.164 0-2.332-.278-11.973-13.738-21.258-30.88-39.914-51.329-44.441-48.739l-.016.008c-.539.336-.824 1.031-.84 2.07.348 12.106 26.114 57.637 62.938 79.297-5.38 13.656-3.39 25.043 2.828 36.285 4.262 7.703 19.91 23.508 34.363 19.38 14.457-4.134 9.903-44.18-13.867-52.227-6.797-2.082-11.09 2.175-12.61 7.922-1.437 5.425-.769 12.09-.308 15.261.168 1.157-.367.828-.68.32-8.671-14.234-2.07-26.882 6.028-29.44 9.453-2.985 22.34 3.788 30.129 16.616 12.523 22.414 6.625 41.395-3.407 47.395-18.02 11.016-47.488-8.207-53.656-30.793-2.312-9.39-.887-19.11 2.598-27.016-52.254-36.336-63.98-70.418-66.301-87.566-1.258-11.246 6.473-13.418 14.035-8.785" style="stroke:none;fill-rule:nonzero;fill:#2c7493;fill-opacity:1"/></svg>